<svg width="138" height="111" viewBox="0 0 138 111" fill="none" xmlns="http://www.w3.org/2000/svg">
<path d="M130.674 55.7682C130.674 66.8339 124.611 77.8935 112.549 86.3373C88.3813 103.231 49.1986 103.234 25.0306 86.3373C12.1331 77.3184 6.18834 65.3104 7.05997 53.5012C6.98364 53.9265 6.92629 54.3565 6.88817 54.7892C5.72601 70.2053 9.64453 80.7938 25.0306 91.5383C49.1986 108.435 88.3813 108.432 112.549 91.5383C126.387 81.8615 130.957 69.5904 130.674 55.7682Z" fill="url(#paint0_linear_32_490)"/>
<g filter="url(#filter0_di_32_490)">
<path d="M68.792 99.0092C102.97 99.0092 130.677 79.6386 130.677 55.7438C130.677 31.8489 102.97 12.4783 68.792 12.4783C34.6136 12.4783 6.90662 31.8489 6.90662 55.7438C6.90662 79.6386 34.6136 99.0092 68.792 99.0092Z" fill="url(#paint1_radial_32_490)"/>
<path d="M130.612 55.7438C130.612 67.6639 123.701 78.4623 112.514 86.2833C101.327 94.1043 85.8694 98.9437 68.792 98.9437C51.7146 98.9437 36.2567 94.1043 25.07 86.2833C13.883 78.4623 6.97217 67.6639 6.97217 55.7438C6.97217 43.8236 13.883 33.0252 25.07 25.2042C36.2567 17.3832 51.7146 12.5438 68.792 12.5438C85.8694 12.5438 101.327 17.3832 112.514 25.2042C123.701 33.0252 130.612 43.8236 130.612 55.7438Z" stroke="url(#paint2_linear_32_490)" stroke-width="0.131111" stroke-linejoin="round"/>
</g>
<g style="mix-blend-mode:multiply" filter="url(#filter1_f_32_490)">
<path fill-rule="evenodd" clip-rule="evenodd" d="M94.0209 58.454C98.0131 58.3341 101.931 57.1518 105.481 54.9955C109.868 52.0097 111.551 48.4151 111.678 45.0488C111.778 49.0884 110.775 56.5611 105.481 60.1672C101.93 62.3217 98.0128 63.5039 94.0209 63.6257C93.5501 63.6584 93.0777 63.6196 92.6152 63.5104C92.1959 63.4135 91.7921 63.2392 91.4188 62.9939L75.8512 52.3878L32.8319 22.5902L36.1996 20.7778L75.8493 47.2185L91.4168 57.8246C91.7904 58.0705 92.195 58.2441 92.6152 58.3388C93.0774 58.4504 93.5501 58.4892 94.0209 58.454ZM109.563 34.9088C109.681 33.0134 109.694 31.1111 109.602 29.2138C109.602 29.3959 109.583 29.5734 109.561 29.751C109.294 31.6668 108.494 33.4235 107.288 34.7451C107.944 35.388 108.548 36.1012 109.092 36.8755C109.327 36.2494 109.486 35.5873 109.563 34.9088ZM85.8472 64.7693C85.8495 64.8519 85.8449 64.9345 85.8336 65.016C85.5422 66.6889 84.9315 68.2614 84.0477 69.6141C83.1639 70.9669 82.0303 72.0643 80.733 72.823C75.1854 76.2065 68.9295 77.636 62.7119 76.941C58.7002 76.6817 54.7451 75.7053 50.982 74.045C48.6093 74.9582 46.1408 75.4796 43.6469 75.5945C38.3054 75.6817 33.0299 74.1957 28.2983 71.2713C24.8198 68.7669 21.6603 65.6927 18.9144 62.1408C18.5979 61.4929 18.3833 60.7829 18.281 60.045C18.1897 59.3383 18.2447 58.6161 18.4413 57.9399C18.5497 57.5794 18.6934 57.2351 18.8694 56.9138C14.4647 55.5615 11.8491 54.1193 9.54824 51.677L7.75867 53.672C10.6647 57.4377 14.0911 60.3777 18.2458 61.7627C18.1194 63.6436 18.3505 65.5341 18.9222 67.2963C20.6191 70.4897 25.7647 74.6952 28.3061 76.4245C32.9678 79.5631 38.2936 81.0632 43.6547 80.7477C46.1485 80.6326 48.6168 80.112 50.9898 79.2005C54.7536 80.8581 58.7083 81.8345 62.7198 82.0965C68.9376 82.7921 75.1938 81.3617 80.7408 77.9762C82.0385 77.2179 83.1726 76.1207 84.0568 74.7679C84.9409 73.4151 85.5519 71.8423 85.8433 70.1692C85.8518 70.1066 85.8563 70.0435 85.857 69.9801C85.8566 69.9306 85.8579 69.7125 85.8597 69.3907V69.3897C85.8669 68.1514 85.8829 65.3803 85.8472 64.7693Z" fill="#083090" fill-opacity="0.4"/>
</g>
<g filter="url(#filter2_b_32_490)">
<path fill-rule="evenodd" clip-rule="evenodd" d="M94.0197 55.0418C98.0119 54.9219 101.93 53.7396 105.48 51.5833C109.867 48.5974 111.55 45.0029 111.677 41.6366C111.777 45.6761 110.774 53.1488 105.48 56.7549C101.929 58.9094 98.0117 60.0916 94.0197 60.2134C93.5489 60.2461 93.0765 60.2074 92.6141 60.0982C92.1947 60.0013 91.7909 59.827 91.4176 59.5817L75.8501 48.9756L27.4231 16.0044C27.1939 15.8751 26.9917 15.6878 26.8308 15.4559C26.67 15.224 26.5545 14.953 26.4925 14.6625C26.4026 13.9892 26.3635 9.46776 26.4026 8.45557C26.4035 8.5102 26.407 8.56434 26.4104 8.61821C26.4143 8.68028 26.4183 8.742 26.4183 8.80372C26.4339 9.03429 26.4593 9.26486 26.4925 9.49543C26.5545 9.78538 26.6699 10.0557 26.8303 10.2872C26.9908 10.5187 27.1925 10.7057 27.4212 10.835L75.8481 43.8062L91.4157 54.4124C91.7893 54.6582 92.1939 54.8318 92.6141 54.9265C93.0762 55.0382 93.5489 55.0769 94.0197 55.0418ZM109.562 31.4964C109.68 29.6011 109.693 27.6987 109.602 25.8014C109.602 25.9835 109.582 26.1611 109.561 26.3386C109.293 28.2545 108.493 30.0111 107.287 31.3327C107.943 31.9757 108.547 32.6889 109.091 33.4632C109.326 32.837 109.485 32.1749 109.562 31.4964ZM5.79018 31.9616C6.27697 33.1138 6.97042 34.1274 7.82245 34.932C7.13667 35.4595 6.55091 36.1488 6.10207 36.9564C5.33151 34.1487 4.96026 31.21 5.00336 28.2593C5.03492 29.5461 5.3034 30.8094 5.79018 31.9616ZM85.8365 61.6037C85.8479 61.5222 85.8525 61.4396 85.8502 61.357C85.8859 61.9678 85.8699 64.7373 85.8627 65.9762V65.9776V65.9785C85.8609 66.3003 85.8596 66.5183 85.86 66.5678C85.8593 66.6311 85.8548 66.6943 85.8463 66.7569C85.5549 68.43 84.9439 70.0028 84.0597 71.3556C83.1756 72.7084 82.0415 73.8056 80.7438 74.5639C75.1968 77.9494 68.9406 79.3798 62.7227 78.6842C58.7113 78.4222 54.7566 77.4458 50.9928 75.7882C48.6198 76.6997 46.1515 77.2203 43.6577 77.3353C38.2966 77.6509 32.9708 76.1508 28.3091 73.0122C25.7676 71.2829 20.6221 67.0774 18.9252 63.884C18.3535 62.1218 18.1224 60.2313 18.2488 58.3504C14.0941 56.9654 10.3516 54.2353 7.44551 50.4696C6.14364 48.6764 5.43969 46.3857 5.46511 44.0252C5.46707 43.8315 5.45338 41.565 5.42015 40.0202C5.60424 41.9951 6.31237 43.851 7.44356 45.3233C10.4949 49.3063 14.4677 52.1492 18.8724 53.5015C18.6964 53.8228 18.5527 54.1671 18.4443 54.5276C18.2477 55.2037 18.1927 55.926 18.284 56.6327C18.3863 57.3706 18.6009 58.0806 18.9174 58.7285C21.6632 62.2804 24.8227 65.3546 28.3013 67.859C33.0329 70.7834 38.3084 72.2694 43.6499 72.1822C46.1438 72.0673 48.6123 71.5459 50.985 70.6327C54.7481 72.2929 58.7032 73.2694 62.7149 73.5287C68.9325 74.2237 75.1884 72.7942 80.736 69.4107C82.0333 68.652 83.1669 67.5546 84.0507 66.2018C84.9345 64.8491 85.5452 63.2765 85.8365 61.6037Z" fill="url(#paint3_linear_32_490)"/>
</g>
<g filter="url(#filter3_bi_32_490)">
<mask id="path-6-inside-1_32_490" fill="white">
<path fill-rule="evenodd" clip-rule="evenodd" d="M107.275 31.3325C109.416 33.3491 110.915 36.1621 111.527 39.3125C111.616 39.817 111.671 40.3288 111.691 40.8434C111.811 44.4449 110.221 48.3646 105.49 51.5925C101.94 53.7488 98.0221 54.9311 94.0299 55.051C93.5591 55.0862 93.0864 55.0474 92.6243 54.9358C92.2041 54.8411 91.7995 54.6674 91.4259 54.4216L82.7496 48.5144L75.8583 43.8224L27.4314 10.8512C27.2027 10.7219 27.001 10.5349 26.8405 10.3034C26.6801 10.0719 26.5647 9.80153 26.5027 9.51157C26.4695 9.281 26.4441 9.05044 26.4285 8.81987C26.3906 8.33653 26.409 7.84935 26.4832 7.3719C26.5726 6.87488 26.7544 6.40742 27.0153 6.00316C27.2763 5.5989 27.61 5.26789 27.9924 5.03395C32.4387 2.18086 37.3605 0.510108 42.4124 0.138988C46.6215 -0.303507 50.8622 0.313425 54.854 1.94895C56.6397 0.982088 58.5696 0.439909 60.5332 0.353418C63.7666 0.194558 67.0007 0.647598 70.1126 1.69532C74.6469 2.93138 78.8027 5.62305 82.1201 9.47238C82.605 9.35479 83.1094 9.25795 83.6353 9.18647C85.7538 8.92537 87.8938 9.04744 89.9811 9.54846C94.6561 10.7939 99.1251 12.9392 103.209 15.8983C107.76 18.9856 109.484 22.2274 109.603 25.121C109.62 25.5275 109.606 25.935 109.56 26.3384C109.289 28.256 108.485 30.0129 107.275 31.3325ZM84.9026 59.8331C85.2072 60.0277 85.4669 60.3071 85.6592 60.647C85.7322 60.7817 85.7857 60.9297 85.8175 61.0851C85.853 61.2549 85.8583 61.4315 85.8332 61.6039C85.5444 63.2817 84.9345 64.8596 84.0498 66.217C83.1651 67.5745 82.0292 68.6756 80.7287 69.4363C75.1814 72.8208 68.9253 74.2504 62.7076 73.5542C58.6959 73.2949 54.7408 72.3185 50.9777 70.6583C48.605 71.5714 46.1366 72.0928 43.6426 72.2077C38.2815 72.5232 32.9557 71.0232 28.294 67.8845C26.5059 66.689 24.7828 65.3629 23.1348 63.9142L22.908 63.6836C22.5992 63.4046 22.2903 63.1233 22.0127 62.8466C20.7496 61.4483 19.6296 59.8806 18.6755 58.1753C18.6368 58.0802 18.6048 57.9815 18.5797 57.8802C18.4412 57.4845 18.3415 57.0714 18.2825 56.649C18.1912 55.9423 18.2462 55.22 18.4429 54.5439C18.5513 54.1834 18.695 53.8391 18.871 53.5178C14.4663 52.1655 10.4935 49.3226 7.44214 45.3396C6.25691 43.8159 5.53898 41.8675 5.40309 39.806C5.40004 39.4713 5.42361 39.1371 5.47347 38.8076C5.62025 38.0085 5.90409 37.2532 6.30754 36.5883C6.71098 35.9233 7.2255 35.3627 7.81946 34.941C6.96554 34.1353 6.27093 33.1196 5.78404 31.9648C5.29715 30.81 5.02971 29.5438 5.00037 28.2545C5.0013 27.6513 5.05701 27.0499 5.16654 26.4607C5.73889 24.336 6.67068 22.3703 7.90558 20.6824C9.14047 18.9946 10.6528 17.6197 12.3511 16.6408C13.4204 16.0144 14.5909 15.6646 15.7841 15.6148C16.8345 15.5461 17.8874 15.5499 18.9375 15.6263C19.6269 15.6566 20.3012 15.8735 20.9081 16.2604L37.4238 27.5052L42.8059 31.1689L84.9026 59.8331Z"/>
</mask>
<path fill-rule="evenodd" clip-rule="evenodd" d="M107.275 31.3325C109.416 33.3491 110.915 36.1621 111.527 39.3125C111.616 39.817 111.671 40.3288 111.691 40.8434C111.811 44.4449 110.221 48.3646 105.49 51.5925C101.94 53.7488 98.0221 54.9311 94.0299 55.051C93.5591 55.0862 93.0864 55.0474 92.6243 54.9358C92.2041 54.8411 91.7995 54.6674 91.4259 54.4216L82.7496 48.5144L75.8583 43.8224L27.4314 10.8512C27.2027 10.7219 27.001 10.5349 26.8405 10.3034C26.6801 10.0719 26.5647 9.80153 26.5027 9.51157C26.4695 9.281 26.4441 9.05044 26.4285 8.81987C26.3906 8.33653 26.409 7.84935 26.4832 7.3719C26.5726 6.87488 26.7544 6.40742 27.0153 6.00316C27.2763 5.5989 27.61 5.26789 27.9924 5.03395C32.4387 2.18086 37.3605 0.510108 42.4124 0.138988C46.6215 -0.303507 50.8622 0.313425 54.854 1.94895C56.6397 0.982088 58.5696 0.439909 60.5332 0.353418C63.7666 0.194558 67.0007 0.647598 70.1126 1.69532C74.6469 2.93138 78.8027 5.62305 82.1201 9.47238C82.605 9.35479 83.1094 9.25795 83.6353 9.18647C85.7538 8.92537 87.8938 9.04744 89.9811 9.54846C94.6561 10.7939 99.1251 12.9392 103.209 15.8983C107.76 18.9856 109.484 22.2274 109.603 25.121C109.62 25.5275 109.606 25.935 109.56 26.3384C109.289 28.256 108.485 30.0129 107.275 31.3325ZM84.9026 59.8331C85.2072 60.0277 85.4669 60.3071 85.6592 60.647C85.7322 60.7817 85.7857 60.9297 85.8175 61.0851C85.853 61.2549 85.8583 61.4315 85.8332 61.6039C85.5444 63.2817 84.9345 64.8596 84.0498 66.217C83.1651 67.5745 82.0292 68.6756 80.7287 69.4363C75.1814 72.8208 68.9253 74.2504 62.7076 73.5542C58.6959 73.2949 54.7408 72.3185 50.9777 70.6583C48.605 71.5714 46.1366 72.0928 43.6426 72.2077C38.2815 72.5232 32.9557 71.0232 28.294 67.8845C26.5059 66.689 24.7828 65.3629 23.1348 63.9142L22.908 63.6836C22.5992 63.4046 22.2903 63.1233 22.0127 62.8466C20.7496 61.4483 19.6296 59.8806 18.6755 58.1753C18.6368 58.0802 18.6048 57.9815 18.5797 57.8802C18.4412 57.4845 18.3415 57.0714 18.2825 56.649C18.1912 55.9423 18.2462 55.22 18.4429 54.5439C18.5513 54.1834 18.695 53.8391 18.871 53.5178C14.4663 52.1655 10.4935 49.3226 7.44214 45.3396C6.25691 43.8159 5.53898 41.8675 5.40309 39.806C5.40004 39.4713 5.42361 39.1371 5.47347 38.8076C5.62025 38.0085 5.90409 37.2532 6.30754 36.5883C6.71098 35.9233 7.2255 35.3627 7.81946 34.941C6.96554 34.1353 6.27093 33.1196 5.78404 31.9648C5.29715 30.81 5.02971 29.5438 5.00037 28.2545C5.0013 27.6513 5.05701 27.0499 5.16654 26.4607C5.73889 24.336 6.67068 22.3703 7.90558 20.6824C9.14047 18.9946 10.6528 17.6197 12.3511 16.6408C13.4204 16.0144 14.5909 15.6646 15.7841 15.6148C16.8345 15.5461 17.8874 15.5499 18.9375 15.6263C19.6269 15.6566 20.3012 15.8735 20.9081 16.2604L37.4238 27.5052L42.8059 31.1689L84.9026 59.8331Z" fill="url(#paint4_linear_32_490)" fill-opacity="0.35"/>
<path d="M111.527 39.3125L111.656 39.2898L111.656 39.2875L111.527 39.3125ZM107.275 31.3325L107.178 31.2439L107.091 31.3393L107.185 31.428L107.275 31.3325ZM111.691 40.8434L111.822 40.8391L111.822 40.8382L111.691 40.8434ZM105.49 51.5925L105.558 51.7047L105.564 51.7008L105.49 51.5925ZM94.0299 55.051L94.026 54.9199L94.0202 54.9203L94.0299 55.051ZM92.6243 54.9358L92.6551 54.8083L92.6531 54.8078L92.6243 54.9358ZM91.4259 54.4216L91.3521 54.53L91.3538 54.5311L91.4259 54.4216ZM82.7496 48.5144L82.6759 48.6228L82.6759 48.6228L82.7496 48.5144ZM75.8583 43.8224L75.9321 43.714H75.9321L75.8583 43.8224ZM27.4314 10.8512L27.5054 10.7424L27.4959 10.737L27.4314 10.8512ZM26.8405 10.3034L26.7328 10.3781V10.3781L26.8405 10.3034ZM26.5027 9.51157L26.3727 9.53032L26.3745 9.53898L26.5027 9.51157ZM26.4285 8.81987L26.5593 8.811L26.5592 8.80963L26.4285 8.81987ZM26.4832 7.3719L26.3541 7.34868L26.3536 7.35177L26.4832 7.3719ZM27.0153 6.00316L26.9052 5.93205L27.0153 6.00316ZM27.9924 5.03395L28.0609 5.14581L28.0633 5.14429L27.9924 5.03395ZM42.4124 0.138988L42.422 0.269812L42.4261 0.269381L42.4124 0.138988ZM54.854 1.94895L54.8042 2.07027L54.8617 2.09383L54.9164 2.06424L54.854 1.94895ZM60.5332 0.353418L60.539 0.484403L60.5396 0.484371L60.5332 0.353418ZM70.1126 1.69532L70.0707 1.81979L70.0781 1.82182L70.1126 1.69532ZM82.1201 9.47238L82.0208 9.55797L82.0732 9.61869L82.1511 9.59979L82.1201 9.47238ZM83.6353 9.18647L83.6192 9.05634L83.6176 9.05656L83.6353 9.18647ZM89.9811 9.54846L90.0149 9.42173L90.0117 9.42097L89.9811 9.54846ZM103.209 15.8983L103.132 16.0045L103.135 16.0068L103.209 15.8983ZM109.603 25.121L109.472 25.1264V25.1265L109.603 25.121ZM109.56 26.3384L109.69 26.3568L109.691 26.3532L109.56 26.3384ZM85.6592 60.647L85.7745 60.5845L85.7733 60.5825L85.6592 60.647ZM84.9026 59.8331L84.8288 59.9415L84.832 59.9436L84.9026 59.8331ZM85.8175 61.0851L85.6891 61.1114L85.6892 61.1119L85.8175 61.0851ZM85.8332 61.6039L85.9624 61.6261L85.9629 61.6228L85.8332 61.6039ZM84.0498 66.217L83.94 66.1454L84.0498 66.217ZM80.7287 69.4363L80.6625 69.3231L80.6604 69.3243L80.7287 69.4363ZM62.7076 73.5542L62.7223 73.4238L62.7161 73.4233L62.7076 73.5542ZM50.9777 70.6583L51.0307 70.5383L50.9811 70.5165L50.9306 70.5359L50.9777 70.6583ZM43.6426 72.2077L43.6366 72.0767L43.6349 72.0768L43.6426 72.2077ZM28.294 67.8845L28.3673 67.7758L28.3669 67.7755L28.294 67.8845ZM23.1348 63.9142L23.0411 64.0063L23.0483 64.0126L23.1348 63.9142ZM22.908 63.6836L23.0017 63.5915L22.9959 63.5863L22.908 63.6836ZM22.0127 62.8466L21.9152 62.9346L21.9201 62.9395L22.0127 62.8466ZM18.6755 58.1753L18.554 58.2247L18.5571 58.2323L18.5611 58.2393L18.6755 58.1753ZM18.5797 57.8802L18.7075 57.8486L18.7034 57.8369L18.5797 57.8802ZM18.2825 56.649L18.1525 56.6658L18.1527 56.6671L18.2825 56.649ZM18.4429 54.5439L18.3173 54.5061L18.317 54.5073L18.4429 54.5439ZM18.871 53.5178L18.986 53.5809L19.0633 53.4397L18.9095 53.3925L18.871 53.5178ZM7.44214 45.3396L7.54623 45.2599L7.54563 45.2591L7.44214 45.3396ZM5.40309 39.806L5.27178 39.8072L5.27227 39.8146L5.40309 39.806ZM5.47347 38.8076L5.34446 38.7839L5.34384 38.788L5.47347 38.8076ZM6.30754 36.5883L6.19545 36.5203L6.30754 36.5883ZM7.81946 34.941L7.89536 35.0479L8.02571 34.9553L7.90943 34.8456L7.81946 34.941ZM5.78404 31.9648L5.90485 31.9139H5.90485L5.78404 31.9648ZM5.00037 28.2545L4.86922 28.2543L4.86929 28.2575L5.00037 28.2545ZM5.16654 26.4607L5.03954 26.4265L5.03764 26.4367L5.16654 26.4607ZM7.90558 20.6824L8.01139 20.7599L7.90558 20.6824ZM12.3511 16.6408L12.4166 16.7544L12.4174 16.754L12.3511 16.6408ZM15.7841 15.6148L15.7895 15.7458L15.7926 15.7456L15.7841 15.6148ZM18.9375 15.6263L18.9279 15.7571L18.9317 15.7573L18.9375 15.6263ZM20.9081 16.2604L20.9819 16.152L20.9786 16.1498L20.9081 16.2604ZM37.4238 27.5052L37.35 27.6136L37.35 27.6136L37.4238 27.5052ZM42.8059 31.1689L42.8797 31.0605L42.8797 31.0605L42.8059 31.1689ZM111.656 39.2875C111.039 36.1127 109.528 33.2742 107.365 31.2371L107.185 31.428C109.305 33.424 110.791 36.2115 111.398 39.3375L111.656 39.2875ZM111.822 40.8382C111.801 40.3178 111.746 39.8001 111.656 39.2898L111.398 39.3351C111.485 39.8338 111.54 40.3399 111.56 40.8487L111.822 40.8382ZM105.564 51.7008C110.329 48.4497 111.943 44.4891 111.822 40.8391L111.56 40.8478C111.678 44.4007 110.113 48.2794 105.416 51.4842L105.564 51.7008ZM94.0339 55.1821C98.0496 55.0614 101.989 53.8722 105.558 51.7046L105.422 51.4805C101.89 53.6255 97.9946 54.8008 94.026 54.92L94.0339 55.1821ZM92.5935 55.0632C93.0688 55.178 93.5552 55.2179 94.0397 55.1818L94.0202 54.9203C93.5631 54.9544 93.1041 54.9168 92.6551 54.8083L92.5935 55.0632ZM91.3538 54.5311C91.7401 54.7853 92.1592 54.9654 92.5955 55.0637L92.6531 54.8078C92.2489 54.7168 91.8589 54.5496 91.4979 54.3121L91.3538 54.5311ZM82.6759 48.6228L91.3521 54.53L91.4997 54.3132L82.8234 48.4061L82.6759 48.6228ZM75.7845 43.9308L82.6759 48.6228L82.8234 48.4061L75.9321 43.714L75.7845 43.9308ZM27.3576 10.9595L75.7845 43.9308L75.9321 43.714L27.5052 10.7428L27.3576 10.9595ZM26.7328 10.3781C26.9037 10.6246 27.1198 10.8256 27.3668 10.9653L27.4959 10.737C27.2857 10.6182 27.0984 10.4451 26.9483 10.2287L26.7328 10.3781ZM26.3745 9.53898C26.44 9.84499 26.5619 10.1315 26.7328 10.3781L26.9483 10.2287C26.7982 10.0122 26.6895 9.75807 26.631 9.48416L26.3745 9.53898ZM26.2976 8.82874C26.3135 9.06298 26.3393 9.29685 26.373 9.53028L26.6325 9.49287C26.5997 9.26516 26.5747 9.0379 26.5593 8.811L26.2976 8.82874ZM26.3536 7.35177C26.2779 7.8393 26.2591 8.33667 26.2977 8.83011L26.5592 8.80963C26.5221 8.33639 26.5401 7.8594 26.6128 7.39204L26.3536 7.35177ZM26.9052 5.93205C26.6344 6.35159 26.4465 6.83547 26.3542 7.34868L26.6122 7.39512C26.6988 6.9143 26.8744 6.46326 27.1255 6.07427L26.9052 5.93205ZM27.924 4.9221C27.5236 5.16706 27.176 5.51249 26.9052 5.93205L27.1255 6.07427C27.3766 5.68531 27.6964 5.36872 28.0609 5.14579L27.924 4.9221ZM42.4028 0.00822968C37.3282 0.381019 32.3854 2.05924 27.9216 4.9236L28.0633 5.14429C32.4919 2.30247 37.3928 0.639197 42.422 0.269747L42.4028 0.00822968ZM54.9037 1.82762C50.8923 0.184046 46.6298 -0.436212 42.3987 0.00859592L42.4261 0.269381C46.6132 -0.170802 50.8322 0.442803 54.8042 2.07027L54.9037 1.82762ZM60.5274 0.222433C58.5433 0.309828 56.5942 0.857664 54.7915 1.83365L54.9164 2.06424C56.6853 1.10651 58.5959 0.569991 60.539 0.484402L60.5274 0.222433ZM70.1544 1.57106C67.0273 0.518189 63.7768 0.0627886 60.5268 0.222464L60.5396 0.484371C63.7564 0.326326 66.9742 0.777008 70.0708 1.81958L70.1544 1.57106ZM82.2195 9.38678C78.8864 5.51935 74.7086 2.81232 70.1471 1.56883L70.0781 1.82182C74.5851 3.05045 78.719 5.72674 82.0208 9.55797L82.2195 9.38678ZM83.6176 9.05656C83.0871 9.12866 82.5783 9.22634 82.0892 9.34496L82.1511 9.59979C82.6317 9.48323 83.1316 9.38724 83.6529 9.31639L83.6176 9.05656ZM90.0117 9.42097C87.9092 8.91631 85.7535 8.79331 83.6192 9.05634L83.6513 9.3166C85.7542 9.05743 87.8784 9.17858 89.9505 9.67595L90.0117 9.42097ZM103.286 15.7921C99.1895 12.8241 94.706 10.6715 90.0149 9.42177L89.9474 9.67516C94.6061 10.9163 99.0606 13.0544 103.132 16.0045L103.286 15.7921ZM109.734 25.1156C109.613 22.1678 107.856 18.8923 103.282 15.7898L103.135 16.0068C107.664 19.0789 109.355 22.2869 109.472 25.1264L109.734 25.1156ZM109.691 26.3532C109.737 25.943 109.752 25.5288 109.734 25.1155L109.472 25.1265C109.489 25.5263 109.475 25.927 109.43 26.3237L109.691 26.3532ZM107.372 31.4211C108.601 30.0804 109.416 28.2984 109.69 26.3568L109.431 26.3201C109.163 28.2137 108.369 29.9455 107.178 31.2439L107.372 31.4211ZM85.7733 60.5825C85.5714 60.2254 85.2973 59.9296 84.9732 59.7226L84.832 59.9436C85.1172 60.1257 85.3625 60.3887 85.5451 60.7115L85.7733 60.5825ZM85.946 61.0588C85.9116 60.8912 85.8538 60.7309 85.7745 60.5845L85.5439 60.7095C85.6105 60.8324 85.6597 60.9682 85.6891 61.1114L85.946 61.0588ZM85.9629 61.6228C85.9902 61.4353 85.9845 61.2432 85.9459 61.0583L85.6892 61.1119C85.7215 61.2666 85.7263 61.4277 85.7034 61.585L85.9629 61.6228ZM84.1596 66.2886C85.0545 64.9155 85.6708 63.3206 85.9624 61.6261L85.704 61.5816C85.4181 63.2428 84.8144 64.8037 83.94 66.1454L84.1596 66.2886ZM80.7949 69.5494C82.1143 68.7777 83.2647 67.6618 84.1596 66.2886L83.94 66.1454C83.0656 67.4871 81.9441 68.5734 80.6625 69.3231L80.7949 69.5494ZM62.6931 73.6845C68.9408 74.384 75.2259 72.9472 80.797 69.5482L80.6604 69.3243C75.137 72.6944 68.9098 74.1167 62.7222 73.4239L62.6931 73.6845ZM50.9248 70.7782C54.7016 72.4445 58.6717 73.4248 62.6992 73.685L62.7161 73.4233C58.7201 73.1651 54.78 72.1925 51.0307 70.5383L50.9248 70.7782ZM43.6487 72.3386C46.1569 72.2231 48.6392 71.6987 51.0248 70.7806L50.9306 70.5359C48.5708 71.4441 46.1162 71.9625 43.6366 72.0767L43.6487 72.3386ZM28.2208 67.9933C32.9051 71.1472 38.2591 72.6559 43.6503 72.3386L43.6349 72.0768C38.3038 72.3906 33.0063 70.8992 28.3673 67.7758L28.2208 67.9933ZM23.0483 64.0126C24.7005 65.4651 26.4282 66.7947 28.2211 67.9935L28.3669 67.7755C26.5837 66.5832 24.8652 65.2607 23.2214 63.8157L23.0483 64.0126ZM22.8146 63.7755L23.0413 64.0061L23.2283 63.8222L23.0015 63.5916L22.8146 63.7755ZM21.9201 62.9395C22.2003 63.2187 22.5114 63.502 22.8202 63.7809L22.9959 63.5863C22.6869 63.3072 22.3803 63.0279 22.1052 62.7538L21.9201 62.9395ZM18.5611 58.2393C19.5198 59.9528 20.6455 61.5286 21.9154 62.9345L22.11 62.7587C20.8538 61.368 19.7394 59.8083 18.7899 58.1113L18.5611 58.2393ZM18.4524 57.9117C18.479 58.019 18.5129 58.1237 18.554 58.2247L18.7969 58.1259C18.7606 58.0367 18.7305 57.944 18.707 57.8487L18.4524 57.9117ZM18.1527 56.6671C18.2128 57.0979 18.3145 57.5195 18.456 57.9235L18.7034 57.8369C18.5678 57.4495 18.4701 57.0448 18.4124 56.6308L18.1527 56.6671ZM18.317 54.5073C18.1152 55.201 18.0589 55.9414 18.1525 56.6658L18.4126 56.6322C18.3236 55.9432 18.3772 55.2391 18.5687 54.5805L18.317 54.5073ZM18.756 53.4548C18.5755 53.7843 18.4283 54.1371 18.3173 54.5061L18.5684 54.5816C18.6743 54.2297 18.8144 53.8938 18.986 53.5809L18.756 53.4548ZM7.33806 45.4193C10.4044 49.422 14.3994 52.2821 18.8325 53.6432L18.9095 53.3925C14.5332 52.0489 10.5825 49.2232 7.54622 45.2599L7.33806 45.4193ZM5.27227 39.8146C5.40975 41.9004 6.13618 43.8742 7.33865 45.4201L7.54563 45.2591C6.37764 43.7575 5.66821 41.8347 5.53392 39.7974L5.27227 39.8146ZM5.34384 38.788C5.29293 39.1244 5.26888 39.4656 5.27199 39.8072L5.5342 39.8048C5.53121 39.4771 5.55429 39.1498 5.60311 38.8272L5.34384 38.788ZM6.19545 36.5203C5.78337 37.1995 5.49405 37.9698 5.34452 38.7839L5.60243 38.8313C5.74646 38.0471 6.02482 37.307 6.41963 36.6563L6.19545 36.5203ZM7.74355 34.8341C7.13404 35.2669 6.60753 35.8411 6.19545 36.5203L6.41963 36.6563C6.81443 36.0056 7.31697 35.4586 7.89536 35.0479L7.74355 34.8341ZM5.66322 32.0157C6.15671 33.1862 6.86143 34.2173 7.72948 35.0364L7.90943 34.8456C7.06966 34.0533 6.38514 33.0531 5.90485 31.9139L5.66322 32.0157ZM4.86929 28.2575C4.89899 29.5628 5.16974 30.8453 5.66322 32.0157L5.90485 31.9139C5.42455 30.7747 5.16042 29.5248 5.13144 28.2515L4.86929 28.2575ZM5.03764 26.4367C4.92664 27.0339 4.8702 27.6432 4.86926 28.2543L5.13148 28.2547C5.1324 27.6594 5.18737 27.066 5.29544 26.4847L5.03764 26.4367ZM7.79976 20.605C6.55484 22.3066 5.61627 24.2871 5.03994 26.4266L5.29314 26.4948C5.86151 24.3849 6.78653 22.434 8.01139 20.7599L7.79976 20.605ZM12.2856 16.5272C10.5705 17.5158 9.04471 18.9034 7.79976 20.605L8.01139 20.7599C9.23624 19.0857 10.7351 17.7235 12.4166 16.7544L12.2856 16.5272ZM15.7786 15.4838C14.5631 15.5345 13.3719 15.8908 12.2848 16.5277L12.4174 16.754C13.4689 16.1379 14.6186 15.7946 15.7895 15.7458L15.7786 15.4838ZM18.947 15.4956C17.8909 15.4187 16.832 15.4148 15.7755 15.484L15.7926 15.7456C16.837 15.6773 17.8839 15.6811 18.9279 15.7571L18.947 15.4956ZM20.9786 16.1498C20.3531 15.7512 19.6566 15.5266 18.9432 15.4953L18.9317 15.7573C19.5971 15.7865 20.2492 15.9959 20.8376 16.3709L20.9786 16.1498ZM37.4976 27.3968L20.9819 16.152L20.8343 16.3688L37.35 27.6136L37.4976 27.3968ZM42.8797 31.0605L37.4976 27.3968L37.35 27.6136L42.7321 31.2773L42.8797 31.0605ZM84.9764 59.7247L42.8797 31.0605L42.7321 31.2773L84.8288 59.9415L84.9764 59.7247Z" fill="url(#paint5_linear_32_490)" mask="url(#path-6-inside-1_32_490)"/>
</g>
<defs>
<filter id="filter0_di_32_490" x="0.351061" y="11.1672" width="136.882" height="99.6421" filterUnits="userSpaceOnUse" color-interpolation-filters="sRGB">
<feFlood flood-opacity="0" result="BackgroundImageFix"/>
<feColorMatrix in="SourceAlpha" type="matrix" values="0 0 0 0 0 0 0 0 0 0 0 0 0 0 0 0 0 0 127 0" result="hardAlpha"/>
<feOffset dy="5.24444"/>
<feGaussianBlur stdDeviation="3.27778"/>
<feComposite in2="hardAlpha" operator="out"/>
<feColorMatrix type="matrix" values="0 0 0 0 0.0980392 0 0 0 0 0.211765 0 0 0 0 0.482353 0 0 0 0.5 0"/>
<feBlend mode="normal" in2="BackgroundImageFix" result="effect1_dropShadow_32_490"/>
<feBlend mode="normal" in="SourceGraphic" in2="effect1_dropShadow_32_490" result="shape"/>
<feColorMatrix in="SourceAlpha" type="matrix" values="0 0 0 0 0 0 0 0 0 0 0 0 0 0 0 0 0 0 127 0" result="hardAlpha"/>
<feOffset/>
<feGaussianBlur stdDeviation="2.62222"/>
<feComposite in2="hardAlpha" operator="arithmetic" k2="-1" k3="1"/>
<feColorMatrix type="matrix" values="0 0 0 0 1 0 0 0 0 1 0 0 0 0 1 0 0 0 0.25 0"/>
<feBlend mode="normal" in2="shape" result="effect2_innerShadow_32_490"/>
</filter>
<filter id="filter1_f_32_490" x="5.13644" y="18.1556" width="109.171" height="66.7346" filterUnits="userSpaceOnUse" color-interpolation-filters="sRGB">
<feFlood flood-opacity="0" result="BackgroundImageFix"/>
<feBlend mode="normal" in="SourceGraphic" in2="BackgroundImageFix" result="shape"/>
<feGaussianBlur stdDeviation="1.31111" result="effect1_foregroundBlur_32_490"/>
</filter>
<filter id="filter2_b_32_490" x="3.68889" y="7.14446" width="109.306" height="73.0222" filterUnits="userSpaceOnUse" color-interpolation-filters="sRGB">
<feFlood flood-opacity="0" result="BackgroundImageFix"/>
<feGaussianBlur in="BackgroundImageFix" stdDeviation="0.655556"/>
<feComposite in2="SourceAlpha" operator="in" result="effect1_backgroundBlur_32_490"/>
<feBlend mode="normal" in="SourceGraphic" in2="effect1_backgroundBlur_32_490" result="shape"/>
</filter>
<filter id="filter3_bi_32_490" x="1.06703" y="-3.93333" width="114.564" height="81.5926" filterUnits="userSpaceOnUse" color-interpolation-filters="sRGB">
<feFlood flood-opacity="0" result="BackgroundImageFix"/>
<feGaussianBlur in="BackgroundImageFix" stdDeviation="1.96667"/>
<feComposite in2="SourceAlpha" operator="in" result="effect1_backgroundBlur_32_490"/>
<feBlend mode="normal" in="SourceGraphic" in2="effect1_backgroundBlur_32_490" result="shape"/>
<feColorMatrix in="SourceAlpha" type="matrix" values="0 0 0 0 0 0 0 0 0 0 0 0 0 0 0 0 0 0 127 0" result="hardAlpha"/>
<feOffset/>
<feGaussianBlur stdDeviation="0.983333"/>
<feComposite in2="hardAlpha" operator="arithmetic" k2="-1" k3="1"/>
<feColorMatrix type="matrix" values="0 0 0 0 1 0 0 0 0 1 0 0 0 0 1 0 0 0 0.5 0"/>
<feBlend mode="normal" in2="shape" result="effect2_innerShadow_32_490"/>
</filter>
<linearGradient id="paint0_linear_32_490" x1="124.783" y1="29.0248" x2="6.95261" y2="60.3451" gradientUnits="userSpaceOnUse">
<stop stop-color="#00298D"/>
<stop offset="0.189268" stop-color="#2349A7"/>
<stop offset="0.646435" stop-color="#3155AD"/>
<stop offset="1" stop-color="#032C91"/>
</linearGradient>
<radialGradient id="paint1_radial_32_490" cx="0" cy="0" r="1" gradientUnits="userSpaceOnUse" gradientTransform="translate(68.792 55.7438) rotate(90) scale(59.3907 84.9503)">
<stop offset="0.0520833" stop-color="#062E8D"/>
<stop offset="1" stop-color="#2968FE"/>
</radialGradient>
<linearGradient id="paint2_linear_32_490" x1="49.052" y1="9.99113" x2="94.4599" y2="89.7748" gradientUnits="userSpaceOnUse">
<stop stop-color="white" stop-opacity="0"/>
<stop offset="1" stop-color="white" stop-opacity="0.43"/>
</linearGradient>
<linearGradient id="paint3_linear_32_490" x1="111.791" y1="111.05" x2="8.41874" y2="-13.3125" gradientUnits="userSpaceOnUse">
<stop stop-color="#E9F7FF"/>
<stop offset="0.579246" stop-color="#D7F0FF" stop-opacity="0.57"/>
<stop offset="0.956471" stop-color="#BDE7FF" stop-opacity="0"/>
</linearGradient>
<linearGradient id="paint4_linear_32_490" x1="5.00037" y1="-6.36681" x2="116.751" y2="65.9134" gradientUnits="userSpaceOnUse">
<stop offset="0.0529546" stop-color="#3FA6E0"/>
<stop offset="0.461273" stop-color="#79CFFF"/>
<stop offset="1" stop-color="#79CFFF"/>
</linearGradient>
<linearGradient id="paint5_linear_32_490" x1="108.906" y1="84.4949" x2="3.1229" y2="22.9347" gradientUnits="userSpaceOnUse">
<stop stop-color="#E9F7FF"/>
<stop offset="0.923987" stop-color="#BDE7FF" stop-opacity="0"/>
</linearGradient>
</defs>
</svg>
