<svg width="145" height="121" viewBox="0 0 145 121" fill="none" xmlns="http://www.w3.org/2000/svg">
<path d="M133.494 69.592C133.494 78.81 127.389 88.0229 115.244 95.0569C90.9078 109.13 51.4529 109.132 27.1171 95.0569C14.13 87.5438 8.14398 77.5408 9.02165 67.7035C8.9448 68.0578 8.88705 68.4159 8.84867 68.7764C7.67843 81.6185 11.6242 90.4389 27.1171 99.3894C51.4529 113.465 90.9078 113.462 115.244 99.3894C129.177 91.3284 133.779 81.1062 133.494 69.592Z" fill="url(#paint0_linear_11_342)"/>
<g filter="url(#filter0_di_11_342)">
<path d="M71.1831 105.613C105.599 105.613 133.498 89.4766 133.498 69.5715C133.498 49.6664 105.599 33.5302 71.1831 33.5302C36.7674 33.5302 8.86792 49.6664 8.86792 69.5715C8.86792 89.4766 36.7674 105.613 71.1831 105.613Z" fill="url(#paint1_radial_11_342)"/>
<path d="M133.433 69.5715C133.433 79.4908 126.481 88.4834 115.214 94.9998C103.949 101.515 88.3815 105.547 71.1831 105.547C53.9846 105.547 38.4176 101.515 27.1524 94.9998C15.8855 88.4834 8.93348 79.4908 8.93348 69.5715C8.93348 59.6522 15.8855 50.6596 27.1524 44.1432C38.4176 37.6277 53.9846 33.5957 71.1831 33.5957C88.3815 33.5957 103.949 37.6277 115.214 44.1432C126.481 50.6596 133.433 59.6522 133.433 69.5715Z" stroke="url(#paint2_linear_11_342)" stroke-width="0.131111" stroke-linejoin="round"/>
</g>
<g style="mix-blend-mode:multiply" filter="url(#filter1_f_11_342)">
<path d="M33.5029 56.9079H56.1192C57.3124 56.9309 58.4916 56.646 59.5451 56.0804C59.9351 55.9031 60.272 55.6252 60.5216 55.2747C60.7712 54.9242 60.9249 54.5135 60.967 54.0839L60.9454 50.7103C60.9454 30.3254 60.9414 24.5755 60.9414 50.6984C60.8996 51.1282 60.7461 51.5394 60.4965 51.8903C60.2468 52.2411 59.9098 52.5193 59.5196 52.6968C58.4654 53.2608 57.2866 53.5455 56.0937 53.5243H33.5029" fill="#083090" fill-opacity="0.4"/>
<path d="M33.5057 76.0111C33.5229 76.4068 33.411 76.7972 33.1871 77.1224C32.9148 77.5134 32.5602 77.8387 32.1487 78.075C31.651 78.3655 31.1136 78.5801 30.5537 78.712C29.3072 79.0111 28.0086 79.0111 26.7621 78.712C26.2027 78.5805 25.6659 78.3658 25.1691 78.075C24.7566 77.8393 24.4012 77.5139 24.1287 77.1224C23.9496 76.8495 23.8469 76.5327 23.8318 76.2056V79.3808C23.8128 79.7767 23.9249 80.1676 24.1504 80.4921C24.4232 80.882 24.7777 81.2065 25.1887 81.4427C25.6861 81.7342 26.2236 81.9496 26.7837 82.0817C28.0302 82.3808 29.3288 82.3808 30.5754 82.0817C31.1348 81.9496 31.6717 81.7342 32.1683 81.4427C32.5803 81.2071 32.9356 80.8825 33.2087 80.4921C33.4324 80.1668 33.5443 79.7764 33.5273 79.3808" fill="#083090" fill-opacity="0.4"/>
<path d="M62.1297 94.6733C61.0672 95.2186 59.892 95.5029 58.6999 95.5029C57.5078 95.5029 56.3326 95.2186 55.2701 94.6733L43.8794 88.0135C43.4889 87.8369 43.1103 87.559 42.8606 87.2083C42.6108 86.8577 42.4575 86.4466 42.4161 86.0168C42.4161 86.0168 42.4378 88.6443 42.4378 89.3905C42.4786 89.8204 42.6315 90.2318 42.8809 90.5828C43.1303 90.9338 43.4673 91.2119 43.8577 91.3889C43.8577 91.3889 54.2311 97.5089 55.2937 98.0529C56.3562 98.597 57.531 98.8806 58.7225 98.8806C59.914 98.8806 61.0888 98.597 62.1513 98.0529C62.5421 97.8762 62.8795 97.5982 63.1293 97.2472C63.379 96.8961 63.5322 96.4846 63.5732 96.0545C63.5732 95.3044 63.5516 94.2526 63.5516 92.6808C63.5095 93.1099 63.3559 93.5202 63.1062 93.8701C62.8565 94.2199 62.5196 94.497 62.1297 94.6733Z" fill="#083090" fill-opacity="0.4"/>
<path d="M118.424 60.7C118.384 61.1302 118.231 61.5419 117.982 61.893C117.732 62.2441 117.395 62.5221 117.004 62.6984C115.941 63.2425 114.766 63.526 113.574 63.526C112.382 63.526 111.207 63.2425 110.144 62.6984L75.892 42.6948C75.5092 42.5187 75.142 42.255 74.8943 41.9118C74.6465 41.5687 74.4847 41.1852 74.4359 40.7635C74.4359 41.3589 74.4516 43.4625 74.4516 44.1015C74.4921 44.5315 74.6448 44.9431 74.8943 45.2941C75.1437 45.6452 75.8716 46.0999 75.8716 46.0999L110.164 66.082C111.227 66.6261 112.402 66.9096 113.594 66.9096C114.785 66.9096 115.961 66.6261 117.023 66.082C117.414 65.9053 117.751 65.6273 118.001 65.2762C118.25 64.9252 118.403 64.5136 118.443 64.0836C118.447 63.3334 118.424 60.7 118.424 60.7Z" fill="#083090" fill-opacity="0.4"/>
<path d="M98.6946 73.3306C97.6317 73.8746 96.4781 74.1867 95.2862 74.1867C94.0944 74.1867 92.9193 73.9032 91.8564 73.3591L75.8632 63.9894C75.4724 63.813 75.1236 63.5776 74.8741 63.2264C74.6246 62.8753 74.4721 62.4636 74.432 62.0334C74.432 62.0334 74.4517 64.6629 74.4517 65.4071C74.4927 65.8372 74.6459 66.2487 74.8956 66.5998C75.1454 66.9508 75.8736 67.4055 75.8736 67.4055C75.8736 67.4055 90.8151 76.1887 91.878 76.7328C92.9409 77.2768 94.116 77.5604 95.3078 77.5604C96.4997 77.5604 97.6748 77.2768 98.7377 76.7328C99.1281 76.5557 99.4651 76.2776 99.7145 75.9266C99.9638 75.5756 100.117 75.1643 100.158 74.7343C100.158 73.9842 100.136 71.3607 100.136 71.3607C100.095 71.7907 99.9428 72.2022 99.6933 72.5533C99.4439 72.9043 99.0853 73.1539 98.6946 73.3306Z" fill="#083090" fill-opacity="0.4"/>
<path d="M80.4214 84.0163C79.3585 84.5604 78.1835 84.8439 76.9916 84.8439C75.7998 84.8439 74.6247 84.5604 73.5618 84.0163L48.4503 69.3309C48.0599 69.1538 47.6831 68.9095 47.4337 68.5585C47.1843 68.2075 47.0314 67.7961 46.9906 67.3662C46.9906 67.3662 47.0122 69.9957 47.0122 70.7399C47.0534 71.1695 47.2064 71.5804 47.4558 71.931C47.7052 72.2816 48.042 72.5595 48.4321 72.7363C48.4321 72.7363 72.5206 86.8518 73.5835 87.3959C74.6464 87.94 75.8214 88.2236 77.0133 88.2236C78.2051 88.2236 79.3802 87.94 80.4431 87.3959C80.8335 87.2189 81.1705 86.9408 81.4199 86.5898C81.6693 86.2388 81.8221 85.8274 81.863 85.3975C81.863 84.6474 81.8414 82.0238 81.8414 82.0238C81.7995 82.4527 81.6462 82.8628 81.3968 83.2127C81.1475 83.5626 80.811 83.8398 80.4214 84.0163Z" fill="#083090" fill-opacity="0.4"/>
</g>
<g filter="url(#filter2_b_11_342)">
<path d="M41.2555 29.1893C42.3181 29.7346 43.4933 30.0189 44.6853 30.0189C45.8774 30.0189 47.0526 29.7346 48.1151 29.1893L51.248 27.3635V23.974L48.0949 25.7522C47.032 26.2963 45.8622 26.59 44.6703 26.59C43.4785 26.59 42.3086 26.3173 41.2457 25.7732C40.8553 25.5961 40.5403 25.3388 40.291 24.9878C40.0416 24.6368 39.8529 24.2431 39.812 23.8132C39.812 23.8132 39.8336 26.4427 39.8336 27.1869C39.8736 27.6179 40.0263 28.0304 40.2762 28.3822C40.526 28.734 40.864 29.0125 41.2555 29.1893Z" fill="url(#paint3_linear_11_342)"/>
<path d="M33.5029 53.9975H56.1192C57.3124 54.0204 58.4916 53.7356 59.5451 53.17C59.9351 52.9927 60.272 52.7148 60.5216 52.3643C60.7712 52.0138 60.9249 51.6031 60.967 51.1735L60.9454 47.7999V27.3435L64.1176 29.199C65.1805 29.7431 66.3555 30.0266 67.5474 30.0266C68.7392 30.0266 69.9143 29.7431 70.9772 29.199C71.3679 29.0222 71.7054 28.7442 71.9551 28.3932C72.2049 28.0422 72.358 27.6307 72.3991 27.2006C72.3991 26.4524 72.3774 23.8269 72.3774 23.8269C72.3364 24.257 72.1456 24.6428 71.8958 24.9938C71.6461 25.3448 71.3033 25.6155 70.9125 25.7923C69.85 26.3364 68.7162 26.5907 67.5247 26.5907C66.3332 26.5907 65.1687 26.3286 64.1061 25.7845L60.9414 23.9473V47.7879C60.8996 48.2178 60.7461 48.629 60.4965 48.9799C60.2468 49.3307 59.9098 49.6089 59.5196 49.7864C58.4654 50.3504 57.2866 50.6351 56.0937 50.6139H33.5029" fill="url(#paint4_linear_11_342)"/>
<path d="M33.5057 73.1012C33.5229 73.4969 33.411 73.8873 33.1871 74.2125C32.9148 74.6035 32.5602 74.9288 32.1487 75.1651C31.651 75.4556 31.1136 75.6702 30.5537 75.8021C29.3072 76.1012 28.0086 76.1012 26.7621 75.8021C26.2027 75.6706 25.6659 75.4559 25.1691 75.1651C24.7566 74.9294 24.4012 74.604 24.1287 74.2125C23.9496 73.9396 23.8469 73.6227 23.8318 73.2957V76.4709C23.8128 76.8668 23.9249 77.2577 24.1504 77.5822C24.4232 77.9721 24.7777 78.2966 25.1887 78.5328C25.6861 78.8243 26.2236 79.0396 26.7837 79.1718C28.0302 79.4709 29.3288 79.4709 30.5754 79.1718C31.1348 79.0397 31.6717 78.8243 32.1683 78.5328C32.5803 78.2972 32.9356 77.9726 33.2087 77.5822C33.4324 77.2569 33.5443 76.8665 33.5273 76.4709" fill="url(#paint5_linear_11_342)"/>
<path d="M62.1299 91.7629C61.0674 92.3082 59.8922 92.5925 58.7001 92.5925C57.5081 92.5925 56.3329 92.3082 55.2703 91.7629L43.8796 85.1031C43.4891 84.9265 43.1105 84.6486 42.8608 84.2979C42.6111 83.9473 42.4577 83.5362 42.4164 83.1064C42.4164 83.1064 42.438 85.7339 42.438 86.4801C42.4789 86.91 42.6317 87.3214 42.8811 87.6724C43.1305 88.0234 43.4675 88.3015 43.8579 88.4785C43.8579 88.4785 54.2314 94.5985 55.2939 95.1425C56.3565 95.6866 57.5312 95.9702 58.7227 95.9702C59.9143 95.9702 61.089 95.6866 62.1516 95.1425C62.5423 94.9658 62.8797 94.6878 63.1295 94.3368C63.3792 93.9857 63.5324 93.5742 63.5735 93.1441C63.5735 92.394 63.5518 91.3422 63.5518 89.7704C63.5098 90.1995 63.3562 90.6098 63.1065 90.9597C62.8568 91.3095 62.5199 91.5866 62.1299 91.7629Z" fill="url(#paint6_linear_11_342)"/>
<path d="M118.424 57.7901C118.384 58.2202 118.231 58.6319 117.982 58.9831C117.732 59.3342 117.395 59.6121 117.004 59.7885C115.941 60.3326 114.766 60.6161 113.574 60.6161C112.382 60.6161 111.207 60.3326 110.144 59.7885L75.892 39.7849C75.5092 39.6088 75.142 39.345 74.8943 39.0019C74.6465 38.6588 74.4847 38.2753 74.4359 37.8536C74.4359 38.449 74.4516 40.5526 74.4516 41.1916C74.4921 41.6216 74.6448 42.0332 74.8943 42.3842C75.1437 42.7353 75.8716 43.19 75.8716 43.19L110.164 63.1721C111.227 63.7162 112.402 63.9997 113.594 63.9997C114.785 63.9997 115.961 63.7162 117.023 63.1721C117.414 62.9954 117.751 62.7174 118.001 62.3663C118.25 62.0152 118.403 61.6037 118.443 61.1737C118.447 60.4235 118.424 57.7901 118.424 57.7901Z" fill="url(#paint7_linear_11_342)"/>
<path d="M98.6946 70.4206C97.6317 70.9647 96.4781 71.2768 95.2862 71.2768C94.0944 71.2768 92.9193 70.9933 91.8564 70.4492L75.8632 61.0795C75.4724 60.9031 75.1236 60.6676 74.8741 60.3165C74.6246 59.9654 74.4721 59.5537 74.432 59.1235C74.432 59.1235 74.4517 61.753 74.4517 62.4972C74.4927 62.9273 74.6459 63.3388 74.8956 63.6898C75.1454 64.0409 75.8736 64.4956 75.8736 64.4956C75.8736 64.4956 90.8151 73.2787 91.878 73.8228C92.9409 74.3669 94.116 74.6505 95.3078 74.6505C96.4997 74.6505 97.6748 74.3669 98.7377 73.8228C99.1281 73.6458 99.4651 73.3677 99.7145 73.0167C99.9638 72.6657 100.117 72.2543 100.158 71.8244C100.158 71.0743 100.136 68.4508 100.136 68.4508C100.095 68.8808 99.9428 69.2923 99.6933 69.6434C99.4439 69.9944 99.0853 70.244 98.6946 70.4206Z" fill="url(#paint8_linear_11_342)"/>
<path d="M80.4214 81.1064C79.3585 81.6505 78.1835 81.934 76.9916 81.934C75.7998 81.934 74.6247 81.6505 73.5618 81.1064L48.4503 66.4209C48.0599 66.2439 47.6831 65.9996 47.4337 65.6486C47.1843 65.2976 47.0314 64.8862 46.9906 64.4563C46.9906 64.4563 47.0122 67.0858 47.0122 67.83C47.0534 68.2595 47.2064 68.6705 47.4558 69.0211C47.7052 69.3717 48.042 69.6495 48.4321 69.8264C48.4321 69.8264 72.5206 83.9419 73.5835 84.486C74.6464 85.0301 75.8214 85.3137 77.0133 85.3137C78.2051 85.3137 79.3802 85.0301 80.4431 84.486C80.8335 84.309 81.1705 84.0309 81.4199 83.6799C81.6693 83.3289 81.8221 82.9175 81.863 82.4876C81.863 81.7375 81.8414 79.1139 81.8414 79.1139C81.7995 79.5428 81.6462 79.9529 81.3968 80.3028C81.1475 80.6526 80.811 80.9299 80.4214 81.1064Z" fill="url(#paint9_linear_11_342)"/>
</g>
<g filter="url(#filter3_bi_11_342)">
<path d="M41.232 25.811C40.8416 25.634 40.5046 25.3559 40.2552 25.0049C40.0058 24.6539 39.8529 24.2425 39.8121 23.8126C39.8533 23.3828 40.0064 22.9717 40.2557 22.6207C40.505 22.2698 40.8418 21.9916 41.232 21.8142L52.664 15.1542C53.727 14.6101 54.902 14.3265 56.0939 14.3265C57.2857 14.3265 58.4608 14.6101 59.5237 15.1542L70.9577 21.8142C71.3481 21.9912 71.6851 22.2694 71.9345 22.6204C72.1839 22.9714 72.3368 23.3827 72.3776 23.8126C72.3366 24.2428 72.1834 24.6542 71.9337 25.0053C71.6839 25.3563 71.3465 25.6343 70.9557 25.811C69.8932 26.3551 68.7184 26.6387 67.5269 26.6387C66.3354 26.6387 65.1606 26.3551 64.0981 25.811L60.9416 23.9734V47.7876C60.9002 48.2176 60.7469 48.6289 60.4972 48.9798C60.2475 49.3308 59.9103 49.6089 59.5197 49.786C58.4656 50.35 57.2868 50.6347 56.0939 50.6135H33.5031V73.0981C33.522 73.4939 33.41 73.8849 33.1845 74.2094C32.912 74.6008 32.5567 74.9262 32.1442 75.162C31.6474 75.4528 31.1105 75.6675 30.5512 75.799C29.305 76.1006 28.0057 76.1006 26.7595 75.799C26.2002 75.6675 25.6633 75.4528 25.1665 75.162C24.755 74.9258 24.3998 74.6013 24.1262 74.2114C23.9025 73.8853 23.7906 73.4943 23.8076 73.0981V47.7915C23.8486 47.3619 24.0015 46.9509 24.2509 46.6002C24.5003 46.2496 24.8373 45.9718 25.2275 45.7951C26.2817 45.2293 27.4616 44.9444 28.6554 44.9676H51.2461V23.9734L48.0897 25.811C47.0267 26.3551 45.8517 26.6387 44.6598 26.6387C43.468 26.6387 42.2949 26.3551 41.232 25.811ZM43.8378 81.1076C44.9007 80.5635 46.0758 80.2799 47.2676 80.2799C48.4594 80.2799 49.6345 80.5635 50.6974 81.1076L62.1295 87.7676C62.543 87.9094 62.9021 88.1782 63.1564 88.5365C63.4108 88.8947 63.5475 89.3243 63.5475 89.765C63.5475 90.2057 63.4108 90.6353 63.1564 90.9936C62.9021 91.3518 62.543 91.6207 62.1295 91.7624C61.0667 92.3071 59.8916 92.591 58.6997 92.591C57.5077 92.591 56.3326 92.3071 55.2698 91.7624L43.8254 85.1024C43.8254 85.1024 43.0631 84.6911 42.808 84.3328C42.5528 83.9744 42.4156 83.5443 42.4156 83.103C42.4156 82.6617 42.5528 82.2316 42.808 81.8732C43.0631 81.5149 43.4233 81.2484 43.8378 81.1076ZM55.2698 62.4531C54.2069 61.909 53.0319 61.6255 51.84 61.6255C50.6482 61.6255 49.4731 61.909 48.4102 62.4531C47.996 62.5944 47.6361 62.8632 47.3813 63.2217C47.1264 63.5802 46.9893 64.0103 46.9893 64.4515C46.9893 64.8927 47.1264 65.3228 47.3813 65.6813C47.6361 66.0398 48.4102 66.4499 48.4102 66.4499L73.5615 81.1016C74.6244 81.6457 75.7995 81.9293 76.9913 81.9293C78.1832 81.9293 79.3582 81.6457 80.4211 81.1016C80.8346 80.9599 81.1938 80.691 81.4481 80.3327C81.7024 79.9745 81.8392 79.5449 81.8392 79.1042C81.8392 78.6635 81.7024 78.2339 81.4481 77.8757C81.1938 77.5174 80.8346 77.2485 80.4211 77.1068L55.2698 62.4531ZM75.8487 57.1247C76.8971 56.5905 78.0867 56.2971 79.2785 56.2971C80.4704 56.2971 81.6454 56.5806 82.7084 57.1247L98.7128 66.4519C98.7128 66.4519 99.4855 66.8626 99.7398 67.2208C99.9941 67.579 100.131 68.0087 100.131 68.4493C100.131 68.89 99.9941 69.3196 99.7398 69.6779C99.4855 70.0361 98.7128 70.4467 98.7128 70.4467C97.6499 70.9908 96.4749 71.2744 95.283 71.2744C94.0912 71.2744 92.9161 70.9908 91.8532 70.4467L75.8487 61.1195C75.8487 61.1195 75.0747 60.7094 74.8198 60.3509C74.5649 59.9924 74.4278 59.5623 74.4278 59.1211C74.4278 58.6799 74.5649 58.2498 74.8198 57.8913C75.0747 57.5328 75.5143 57.2979 75.8487 57.1247ZM82.7084 35.811C81.6454 35.2669 80.4704 34.9834 79.2785 34.9834C78.0867 34.9834 76.9116 35.2669 75.8487 35.811C75.4583 35.988 75.1213 36.2662 74.8719 36.6171C74.6225 36.9681 74.4697 37.3795 74.4288 37.8094C74.4697 38.2393 74.6225 38.6507 74.8719 39.0017C75.1213 39.3527 75.8487 39.8078 75.8487 39.8078L110.145 59.7919C111.208 60.336 112.383 60.6195 113.575 60.6195C114.767 60.6195 115.942 60.336 117.005 59.7919C117.41 59.5844 117.777 59.3813 118.031 59.023C118.286 58.6648 118.423 58.2352 118.423 57.7945C118.423 57.3538 118.286 56.9242 118.031 56.5659C117.777 56.2077 117.374 55.9704 117.005 55.7971L82.7084 35.811Z" fill="url(#paint10_linear_11_342)" fill-opacity="0.35"/>
<path d="M41.2619 25.7527L41.2619 25.7526L41.2591 25.7513C40.8793 25.5791 40.5513 25.3085 40.3086 24.9669C40.0671 24.627 39.9186 24.2289 39.8779 23.8127C39.919 23.3965 40.0677 22.9985 40.3091 22.6587C40.5518 22.3172 40.8795 22.0464 41.2591 21.8739L41.2593 21.8742L41.265 21.8709L52.6955 15.2117C53.7488 14.6729 54.913 14.3921 56.0939 14.3921C57.2747 14.3921 58.439 14.6729 59.4922 15.2117L70.9247 21.8709L70.9245 21.8712L70.9306 21.8739C71.3104 22.0461 71.6383 22.3167 71.8811 22.6583C72.1226 22.9982 72.2711 23.3964 72.3117 23.8126C72.2709 24.2291 72.1221 24.6273 71.8802 24.9673C71.6372 25.3089 71.3089 25.5794 70.9287 25.7513L70.9287 25.7512L70.9259 25.7527C69.8725 26.292 68.708 26.5731 67.5269 26.5731C66.3464 26.5731 65.1825 26.2923 64.1295 25.7535L60.9746 23.9167L60.8761 23.8593V23.9734V47.7844C60.8353 48.2019 60.6862 48.6011 60.4437 48.9418C60.2007 49.2834 59.8726 49.554 59.4927 49.7263L59.4926 49.7261L59.4888 49.7282C58.4445 50.2869 57.2768 50.569 56.095 50.5479H56.0939H33.5031H33.4376V50.6135V73.0981H33.4375L33.4376 73.1012C33.4559 73.4826 33.3479 73.8593 33.1307 74.1719C32.8638 74.5554 32.5157 74.8742 32.1116 75.105L32.111 75.1054C31.6199 75.3929 31.0891 75.6051 30.5362 75.7352L30.5358 75.7353C29.2997 76.0344 28.011 76.0344 26.7749 75.7353L26.7745 75.7352C26.2216 75.6051 25.6908 75.3929 25.1997 75.1054L25.1992 75.1051C24.7961 74.8738 24.4482 74.5559 24.1801 74.174C23.9645 73.8597 23.8567 73.4828 23.8731 73.1009L23.8732 73.1009V73.0981V47.7947C23.9135 47.3776 24.0622 46.9786 24.3044 46.6382C24.5471 46.297 24.8749 46.0267 25.2545 45.8548L25.2546 45.855L25.2585 45.8529C26.3028 45.2924 27.4716 45.0102 28.6541 45.0331H28.6554H51.2461H51.3117V44.9676V23.9734V23.8593L51.2131 23.9167L48.0582 25.7535C47.0049 26.2923 45.8407 26.5731 44.6598 26.5731C43.4784 26.5731 42.3156 26.2921 41.2619 25.7527ZM43.8589 81.1696L43.8591 81.1703L43.8677 81.1659C44.9213 80.6266 46.0862 80.3455 47.2676 80.3455C48.4484 80.3455 49.6127 80.6263 50.6659 81.1651C50.6665 81.1654 50.667 81.1656 50.6675 81.1659L62.0965 87.8242L62.0958 87.8254L62.1082 87.8296C62.5087 87.9669 62.8565 88.2273 63.103 88.5744C63.3494 88.9215 63.482 89.3379 63.482 89.765C63.482 90.1921 63.3494 90.6085 63.103 90.9556C62.8565 91.3027 62.5087 91.5631 62.1082 91.7004L62.108 91.6998L62.0996 91.7041C61.0461 92.2441 59.8812 92.5255 58.6997 92.5255C57.5187 92.5255 56.3544 92.2444 55.3013 91.7049C55.3008 91.7046 55.3003 91.7044 55.2997 91.7041L43.8583 85.0457L43.8565 85.0447L43.8564 85.0447L43.856 85.0445L43.8545 85.0436L43.8483 85.0402L43.8241 85.0268C43.8031 85.0151 43.7727 84.9978 43.7354 84.976C43.6607 84.9323 43.5585 84.8703 43.4486 84.7974C43.226 84.6496 42.9812 84.463 42.8614 84.2947C42.6142 83.9475 42.4811 83.5307 42.4811 83.103C42.4811 82.6753 42.6142 82.2585 42.8614 81.9112C43.1085 81.5642 43.4574 81.306 43.8589 81.1696ZM48.4314 62.5152L48.4316 62.5158L48.4401 62.5115C49.4938 61.9721 50.6586 61.691 51.84 61.691C53.0209 61.691 54.1851 61.9718 55.2384 62.5107L80.3881 77.1634L80.3875 77.1645L80.3999 77.1688C80.8003 77.3061 81.1482 77.5665 81.3947 77.9136C81.6411 78.2607 81.7737 78.6771 81.7737 79.1042C81.7737 79.5313 81.6411 79.9477 81.3947 80.2948C81.1482 80.6419 80.8003 80.9023 80.3999 81.0396L80.3997 81.039L80.3913 81.0433C79.3376 81.5826 78.1728 81.8637 76.9913 81.8637C75.8105 81.8637 74.6462 81.5829 73.593 81.0441C73.5924 81.0438 73.5919 81.0435 73.5914 81.0433L48.4432 66.3933L48.4432 66.3932L48.4409 66.392L48.4408 66.392L48.4404 66.3918L48.4389 66.3909L48.4326 66.3875L48.408 66.3742C48.3867 66.3624 48.3558 66.3452 48.318 66.3234C48.2422 66.2798 48.1386 66.218 48.0272 66.1452C47.8015 65.9977 47.5542 65.8114 47.4347 65.6433C47.1877 65.296 47.0548 64.8792 47.0548 64.4515C47.0548 64.0239 47.1877 63.6071 47.4347 63.2597C47.6817 62.9124 48.0303 62.652 48.4314 62.5152ZM98.6798 66.5086L98.6821 66.5098L98.6822 66.5099L98.6825 66.5101L98.6841 66.5109L98.6904 66.5143L98.7149 66.5277C98.7362 66.5394 98.767 66.5566 98.8048 66.5785C98.8804 66.6221 98.9838 66.684 99.095 66.7568C99.3202 66.9045 99.5671 67.0908 99.6863 67.2587C99.9328 67.6059 100.065 68.0222 100.065 68.4493C100.065 68.8765 99.9328 69.2928 99.6863 69.6399C99.5671 69.8078 99.3202 69.9942 99.095 70.1418C98.9838 70.2147 98.8804 70.2766 98.8048 70.3202C98.767 70.342 98.7362 70.3593 98.7149 70.371L98.6904 70.3844L98.6841 70.3878L98.683 70.3884C98.6829 70.3884 98.6827 70.3885 98.6826 70.3886C97.629 70.9278 96.4643 71.2088 95.283 71.2088C94.1022 71.2088 92.9379 70.928 91.8846 70.3892C91.8841 70.3889 91.8836 70.3887 91.8831 70.3884L75.8817 61.0629L75.8818 61.0628L75.8794 61.0616L75.8793 61.0616L75.879 61.0614L75.8774 61.0605L75.8711 61.0571L75.8466 61.0438C75.8252 61.032 75.7944 61.0148 75.7565 60.993C75.6807 60.9494 75.5771 60.8876 75.4657 60.8148C75.24 60.6673 74.9927 60.481 74.8732 60.3129C74.6262 59.9656 74.4933 59.5488 74.4933 59.1211C74.4933 58.6935 74.6262 58.2767 74.8732 57.9293C75.1173 57.5859 75.5418 57.3575 75.8785 57.1831C76.9178 56.6535 78.0973 56.3626 79.2785 56.3626C80.4594 56.3626 81.6236 56.6434 82.6769 57.1822C82.6774 57.1825 82.678 57.1828 82.6785 57.1831L98.6798 66.5086ZM75.8758 35.8707L75.8758 35.8708L75.8786 35.8694C76.9323 35.33 78.0971 35.0489 79.2785 35.0489C80.4594 35.0489 81.6236 35.3297 82.6769 35.8685C82.6774 35.8688 82.678 35.8691 82.6785 35.8694L116.972 55.8537L116.971 55.8539L116.977 55.8564C117.344 56.0286 117.734 56.26 117.978 56.6039C118.224 56.951 118.357 57.3673 118.357 57.7945C118.357 58.2216 118.224 58.638 117.978 58.9851C117.734 59.3287 117.381 59.5256 116.975 59.7335C115.921 60.2729 114.756 60.554 113.575 60.554C112.394 60.554 111.23 60.2732 110.176 59.7344C110.176 59.7341 110.175 59.7338 110.175 59.7335L75.8835 39.7522L75.8834 39.7522L75.8831 39.752L75.8817 39.7512L75.8816 39.751L75.8756 39.7473L75.8525 39.7325C75.8324 39.7195 75.8033 39.7006 75.7676 39.6767C75.6961 39.629 75.5983 39.5617 75.4928 39.4837C75.2796 39.3258 75.0433 39.1297 74.9254 38.9637C74.6839 38.6238 74.5353 38.2257 74.4947 37.8094C74.5353 37.3932 74.6839 36.995 74.9254 36.6551C75.1681 36.3135 75.496 36.0429 75.8758 35.8707Z" stroke="url(#paint11_linear_11_342)" stroke-width="0.131111"/>
</g>
<defs>
<filter id="filter0_di_11_342" x="2.31236" y="32.219" width="137.741" height="85.1938" filterUnits="userSpaceOnUse" color-interpolation-filters="sRGB">
<feFlood flood-opacity="0" result="BackgroundImageFix"/>
<feColorMatrix in="SourceAlpha" type="matrix" values="0 0 0 0 0 0 0 0 0 0 0 0 0 0 0 0 0 0 127 0" result="hardAlpha"/>
<feOffset dy="5.24444"/>
<feGaussianBlur stdDeviation="3.27778"/>
<feComposite in2="hardAlpha" operator="out"/>
<feColorMatrix type="matrix" values="0 0 0 0 0.0980392 0 0 0 0 0.211765 0 0 0 0 0.482353 0 0 0 0.5 0"/>
<feBlend mode="normal" in2="BackgroundImageFix" result="effect1_dropShadow_11_342"/>
<feBlend mode="normal" in="SourceGraphic" in2="effect1_dropShadow_11_342" result="shape"/>
<feColorMatrix in="SourceAlpha" type="matrix" values="0 0 0 0 0 0 0 0 0 0 0 0 0 0 0 0 0 0 127 0" result="hardAlpha"/>
<feOffset/>
<feGaussianBlur stdDeviation="2.62222"/>
<feComposite in2="hardAlpha" operator="arithmetic" k2="-1" k3="1"/>
<feColorMatrix type="matrix" values="0 0 0 0 1 0 0 0 0 1 0 0 0 0 1 0 0 0 0.25 0"/>
<feBlend mode="normal" in2="shape" result="effect2_innerShadow_11_342"/>
</filter>
<filter id="filter1_f_11_342" x="21.2075" y="30.5753" width="99.8585" height="70.9275" filterUnits="userSpaceOnUse" color-interpolation-filters="sRGB">
<feFlood flood-opacity="0" result="BackgroundImageFix"/>
<feBlend mode="normal" in="SourceGraphic" in2="BackgroundImageFix" result="shape"/>
<feGaussianBlur stdDeviation="1.31111" result="effect1_foregroundBlur_11_342"/>
</filter>
<filter id="filter2_b_11_342" x="22.5186" y="22.5021" width="97.2362" height="74.7792" filterUnits="userSpaceOnUse" color-interpolation-filters="sRGB">
<feFlood flood-opacity="0" result="BackgroundImageFix"/>
<feGaussianBlur in="BackgroundImageFix" stdDeviation="0.655556"/>
<feComposite in2="SourceAlpha" operator="in" result="effect1_backgroundBlur_11_342"/>
<feBlend mode="normal" in="SourceGraphic" in2="effect1_backgroundBlur_11_342" result="shape"/>
</filter>
<filter id="filter3_bi_11_342" x="19.8726" y="10.3932" width="102.483" height="86.1312" filterUnits="userSpaceOnUse" color-interpolation-filters="sRGB">
<feFlood flood-opacity="0" result="BackgroundImageFix"/>
<feGaussianBlur in="BackgroundImageFix" stdDeviation="1.96667"/>
<feComposite in2="SourceAlpha" operator="in" result="effect1_backgroundBlur_11_342"/>
<feBlend mode="normal" in="SourceGraphic" in2="effect1_backgroundBlur_11_342" result="shape"/>
<feColorMatrix in="SourceAlpha" type="matrix" values="0 0 0 0 0 0 0 0 0 0 0 0 0 0 0 0 0 0 127 0" result="hardAlpha"/>
<feOffset/>
<feGaussianBlur stdDeviation="0.983333"/>
<feComposite in2="hardAlpha" operator="arithmetic" k2="-1" k3="1"/>
<feColorMatrix type="matrix" values="0 0 0 0 1 0 0 0 0 1 0 0 0 0 1 0 0 0 0.5 0"/>
<feBlend mode="normal" in2="shape" result="effect2_innerShadow_11_342"/>
</filter>
<linearGradient id="paint0_linear_11_342" x1="127.563" y1="47.3139" x2="12.4176" y2="84.3103" gradientUnits="userSpaceOnUse">
<stop stop-color="#00298D"/>
<stop offset="0.189268" stop-color="#2349A7"/>
<stop offset="0.646435" stop-color="#3155AD"/>
<stop offset="1" stop-color="#032C91"/>
</linearGradient>
<radialGradient id="paint1_radial_11_342" cx="0" cy="0" r="1" gradientUnits="userSpaceOnUse" gradientTransform="translate(71.183 69.5715) rotate(90) scale(49.4741 85.5402)">
<stop offset="0.0520833" stop-color="#062E8D"/>
<stop offset="1" stop-color="#2968FE"/>
</radialGradient>
<linearGradient id="paint2_linear_11_342" x1="51.306" y1="31.4583" x2="85.2174" y2="103.482" gradientUnits="userSpaceOnUse">
<stop stop-color="white" stop-opacity="0"/>
<stop offset="1" stop-color="white" stop-opacity="0.43"/>
</linearGradient>
<linearGradient id="paint3_linear_11_342" x1="51.2595" y1="32.8567" x2="42.624" y2="20.2229" gradientUnits="userSpaceOnUse">
<stop stop-color="#E9F7FF"/>
<stop offset="0.579246" stop-color="#D7F0FF" stop-opacity="0.57"/>
<stop offset="0.956471" stop-color="#BDE7FF" stop-opacity="0"/>
</linearGradient>
<linearGradient id="paint4_linear_11_342" x1="72.4381" y1="67.7966" x2="27.3881" y2="21.6902" gradientUnits="userSpaceOnUse">
<stop stop-color="#E9F7FF"/>
<stop offset="0.579246" stop-color="#D7F0FF" stop-opacity="0.57"/>
<stop offset="0.956471" stop-color="#BDE7FF" stop-opacity="0"/>
</linearGradient>
<linearGradient id="paint5_linear_11_342" x1="33.5387" y1="82.2748" x2="24.3249" y2="71.0041" gradientUnits="userSpaceOnUse">
<stop stop-color="#E9F7FF"/>
<stop offset="0.579246" stop-color="#D7F0FF" stop-opacity="0.57"/>
<stop offset="0.956471" stop-color="#BDE7FF" stop-opacity="0"/>
</linearGradient>
<linearGradient id="paint6_linear_11_342" x1="63.5947" y1="101.853" x2="45.0464" y2="77.6339" gradientUnits="userSpaceOnUse">
<stop stop-color="#E9F7FF"/>
<stop offset="0.579246" stop-color="#D7F0FF" stop-opacity="0.57"/>
<stop offset="0.956471" stop-color="#BDE7FF" stop-opacity="0"/>
</linearGradient>
<linearGradient id="paint7_linear_11_342" x1="118.488" y1="75.9565" x2="81.0233" y2="25.8947" gradientUnits="userSpaceOnUse">
<stop stop-color="#E9F7FF"/>
<stop offset="0.579246" stop-color="#D7F0FF" stop-opacity="0.57"/>
<stop offset="0.956471" stop-color="#BDE7FF" stop-opacity="0"/>
</linearGradient>
<linearGradient id="paint8_linear_11_342" x1="100.183" y1="81.7511" x2="77.8384" y2="52.3596" gradientUnits="userSpaceOnUse">
<stop stop-color="#E9F7FF"/>
<stop offset="0.579246" stop-color="#D7F0FF" stop-opacity="0.57"/>
<stop offset="0.956471" stop-color="#BDE7FF" stop-opacity="0"/>
</linearGradient>
<linearGradient id="paint9_linear_11_342" x1="81.898" y1="94.8519" x2="51.9559" y2="55.1083" gradientUnits="userSpaceOnUse">
<stop stop-color="#E9F7FF"/>
<stop offset="0.579246" stop-color="#D7F0FF" stop-opacity="0.57"/>
<stop offset="0.956471" stop-color="#BDE7FF" stop-opacity="0"/>
</linearGradient>
<linearGradient id="paint10_linear_11_342" x1="23.8059" y1="7.56779" x2="132.601" y2="66.3505" gradientUnits="userSpaceOnUse">
<stop offset="0.0529546" stop-color="#3FA6E0"/>
<stop offset="0.461273" stop-color="#79CFFF"/>
<stop offset="1" stop-color="#79CFFF"/>
</linearGradient>
<linearGradient id="paint11_linear_11_342" x1="115.947" y1="104.023" x2="14.3761" y2="54.646" gradientUnits="userSpaceOnUse">
<stop stop-color="#E9F7FF"/>
<stop offset="0.923987" stop-color="#BDE7FF" stop-opacity="0"/>
</linearGradient>
</defs>
</svg>
